# AST/ASF file generated using VICON BodyLanguage
# -----------------------------------------------
:version 1.10
:name VICON
:units
  mass 1.0
  length 0.45
  angle deg
:documentation
   .ast/.asf automatically generated from VICON data using
   VICON BodyBuilder and BodyLanguage model FoxedUp or BRILLIANT.MOD
:root
   order TX TY TZ RX RY RZ
   axis XYZ
   position 0 0 0  
   orientation 0 0 0 
:bonedata
  begin
     id 1 
     name lhipjoint
     direction 0.710188 -0.616876 0.339259 
     length 2.5669 
     axis 0 0 0  XYZ
  end
  begin
     id 2 
     name lfemur
     direction 0.34202 -0.939693 0  
     length 7.12796  
     axis 0 0 20  XYZ
    dof rx ry rz
    limits (-160.0 20.0)
           (-70.0 70.0)
           (-60.0 70.0)
  end
  begin
     id 3 
     name ltibia
     direction 0.34202 -0.939693 0   
     length 7.58108   
     axis 0 0 20   XYZ
    dof rx
    limits (-10.0 170.0)
  end
  begin
     id 4 
     name lfoot
     direction 0.0669471 -0.183936 0.980656   
     length 2.17365   
     axis -90 7.62852e-016 20   XYZ
    dof rx rz
    limits (-45.0 90.0)
           (-70.0 20.0)
  end
  begin
     id 5 
     name ltoes
     direction 1.53508e-011 -4.21705e-011 1   
     length 1.09427   
     axis -90 7.62852e-016 20   XYZ
    dof rx
    limits (-90.0 20.0)
  end
  begin
     id 6 
     name rhipjoint
     direction -0.700191 -0.625589 0.34405   
     length 2.53115  
     axis 0 0 0  XYZ 
  end
  begin
     id 7 
     name rfemur
     direction -0.34202 -0.939693 0   
     length 7.33006   
     axis 0 0 -20   XYZ
    dof rx ry rz
    limits (-160.0 20.0)
           (-70.0 70.0)
           (-70.0 60.0)
  end
  begin
     id 8 
     name rtibia
     direction -0.34202 -0.939693 0   
     length 7.64926   
     axis 0 0 -20   XYZ
    dof rx
    limits (-10.0 170.0)
 end
 begin
     id 9 
     name rfoot
     direction -0.0688927 -0.189281 0.979503   
     length 2.20493  
     axis -90 -7.62852e-016 -20   XYZ
    dof rx rz
    limits (-45.0 90.0)
           (-20.0 70.0)
  end
  begin
     id 10 
     name rtoes
     direction -1.53567e-011 -4.21933e-011 1   
     length 1.10919   
     axis -90 -7.62852e-016 -20   XYZ
    dof rx
    limits (-90.0 20.0)
  end
  begin
     id 11 
     name lowerback
     direction -0.0167868 0.989873 -0.140959   
     length 2.14596   
     axis 0 0 0   XYZ
    dof rx ry rz
    limits (-20.0 45.0)
           (-30.0 30.0)
           (-30.0 30.0)
  end
  begin
     id 12 
     name upperback
     direction 0.0129109 0.998033 0.0613525   
     length 2.10457   
     axis 0 0 0   XYZ
    dof rx ry rz
    limits (-20.0 45.0)
           (-30.0 30.0)
           (-30.0 30.0)
  end
  begin
     id 13 
     name thorax
     direction 0.0177047 0.991119 0.131797   
     length 2.17652   
     axis 0 0 0   XYZ
    dof rx ry rz
    limits (-20.0 45.0)
           (-30.0 30.0)
           (-30.0 30.0)
  end
  begin
     id 14 
     name lowerneck
     direction -0.0336893 0.997548 0.0613464   
     length 1.8912   
     axis 0 0 0   XYZ
    dof rx ry rz
    limits (-20.0 45.0)
           (-30.0 30.0)
           (-30.0 30.0)
  end
  begin
     id 15 
     name upperneck
     direction 0.0435909 0.997179 -0.0611028   
     length 1.8829   
     axis 0 0 0   XYZ
    dof rx ry rz
    limits (-20.0 45.0)
           (-30.0 30.0)
           (-30.0 30.0)
  end
  begin
     id 16
     name head
     direction 0.0175076 0.999444 -0.0283782  
     length 1.93197  
     axis 0 0 0   XYZ
    dof rx ry rz
    limits (-20.0 45.0)
           (-30.0 30.0)
           (-30.0 30.0)
  end
  begin
     id 17 
     name lclavicle
     direction 0.919164 0.389875 0.0559876  
     length 3.60004  
     axis 0 0 0   XYZ
    dof ry rz
    limits (-20.0 10.0)
           (0.0 20.0)
  end
  begin
     id 18 
     name lhumerus
     direction 1 -4.48958e-011 6.89191e-027   
     length 5.43301   
     axis 180 -30 -90   XYZ
    dof rx ry rz
    limits (-60.0 90.0)
           (-90.0 90.0)
           (-90.0 90.0)
  end
  begin
     id 19
     name lradius
     direction 1 -4.4897e-011 3.24727e-027   
     length 3.15936   
     axis 180 -30 -90   XYZ
    dof rx
    limits (-10.0 170.0)
  end
  begin
     id 20
     name lwrist
     direction 1 -4.4897e-011 9.00228e-027   
     length 1.57968   
     axis -6.29373e-015 90 90   XYZ
    dof ry
    limits (-180.0 0.0)
 end
  begin
     id 21 
     name lhand
     direction 1 -4.48968e-011 1.80042e-026   
     length 0.712827   
     axis -1.14882e-014 90 90   XYZ
    dof rx rz
    limits (-90.0 90.0)
           (-45.0 45.0)
  end
  begin
     id 22 
     name lfingers
     direction 1 -4.49019e-011 3.60267e-026   
     length 0.574699   
     axis -2.29769e-014 90 90   XYZ
    dof rx
    limits (0.0 90.0)
  end
  begin
     id 23
     name lthumb
     direction 0.707107 -6.3498e-011 0.707107   
     length 0.825157   
     axis -90 45 5.37419e-014   XYZ
    dof rx rz
    limits (-45.0 45.0)
           (-45.0 45.0)
  end
  begin
     id 24 
     name rclavicle
     direction -0.890334 0.455305 -0.00132111   
     length 3.51494  
     axis 0 0 0   XYZ 
    dof ry rz
    limits (-10.0 20.0)
           (-20.0 0.0)
  end
  begin
     id 25 
     name rhumerus
     direction -1 -4.48967e-011 5.07175e-028  
     length 5.34194   
     axis 180 30 90   XYZ
    dof rx ry rz
    limits (-90.0 60.0)
           (-90.0 90.0)
           (-90.0 90.0)
  end
  begin
     id 26 
     name rradius
     direction -1 -4.48955e-011 3.30467e-027   
     length 3.19351   
     axis 180 30 90   XYZ
    dof rx
    limits (-10.0 170.0)
  end
  begin
     id 27 
     name rwrist
     direction -1 -4.48968e-011 9.00208e-027   
     length 1.59676   
     axis -6.29373e-015 -90 -90   XYZ
    dof ry
    limits (-180.0 0.0)
  end
  begin
     id 28
     name rhand
     direction -1 -4.49e-011 1.80099e-026   
     length 0.743862   
     axis -1.14882e-014 -90 -90   XYZ
    dof rx rz
    limits (-90.0 90.0)
           (-45.0 45.0)
  end
  begin
     id 29
     name rfingers
     direction -1 -4.49009e-011 3.6023e-026   
     length 0.599721   
     axis -2.29769e-014 -90 -90   XYZ
    dof rx
    limits (0.0 90.0)
  end
  begin
     id 30
     name rthumb
     direction -0.707107 -6.35025e-011 0.707107   
     length 0.861083   
     axis -90 -45 -5.37419e-014   XYZ
    dof rx rz
    limits (-45.0 45.0)
           (-45.0 45.0)
  end
:hierarchy
  begin
    root lhipjoint rhipjoint lowerback
    lhipjoint lfemur
    lfemur ltibia
    ltibia lfoot
    lfoot ltoes
    rhipjoint rfemur
    rfemur rtibia
    rtibia rfoot
    rfoot rtoes
    lowerback upperback
    upperback thorax
    thorax lowerneck lclavicle rclavicle
    lowerneck upperneck
    upperneck head
    lclavicle lhumerus
    lhumerus lradius
    lradius lwrist
    lwrist lhand lthumb
    lhand lfingers
    rclavicle rhumerus
    rhumerus rradius
    rradius rwrist
    rwrist rhand rthumb
    rhand rfingers
  end

#!OML:ASF H:\Martial Arts Walks\Project 1\Capture day 1\Session 1\male.ASF
:FULLY-SPECIFIED
:DEGREES
412
root -3.00578 13.8759 -20.1623 -9.24969 28.213 0.00382605
lowerback 17.574 1.78632 -9.44032
upperback 2.78566 0.798769 2.24211
thorax -6.99456 0.665591 7.65036
lowerneck 0.6234 -9.88107 -9.39153
upperneck 5.7496 -13.6617 9.55337
head 2.91135 -6.79563 3.90729
rclavicle 1.45796e-014 -2.5842e-015
rhumerus -32.6034 0.0486835 -62.8584
rradius 124.469
rwrist -12.9791
rhand -28.0454 -29.601
rfingers 7.12502
rthumb -1.42979 -59.576
lclavicle 1.45796e-014 -2.5842e-015
lhumerus -60.5568 -26.5584 105.916
lradius 103.512
lwrist 40.429
lhand -14.0125 12.1951
lfingers 7.12502
lthumb 12.117 41.8242
rfemur -43.1292 -8.11564 -0.791731
rtibia 48.4758
rfoot 9.5577 9.91025
rtoes -8.96395
lfemur 16.5267 -4.07766 -7.43487
ltibia 48.6133
lfoot -33.4755 35.4097
ltoes -25.522
413
root -3.03872 13.8246 -19.9649 -8.27421 28.2782 0.558393
lowerback 17.4774 1.72299 -9.36538
upperback 2.35138 0.698835 2.00334
thorax -7.3959 0.647645 7.3675
lowerneck 0.560457 -9.86753 -9.49975
upperneck 5.64899 -13.6257 9.46172
head 2.88916 -6.78143 3.8972
rclavicle 1.39833e-014 -7.7526e-015
rhumerus -32.2674 0.193268 -62.5258
rradius 123.829
rwrist -12.6217
rhand -28.46 -29.7388
rfingers 7.12502
rthumb -1.83016 -59.7106
lclavicle 1.39833e-014 -7.7526e-015
lhumerus -61.5927 -26.5126 106.123
lradius 103.629
lwrist 39.1698
lhand -13.6176 12.397
lfingers 7.12502
lthumb 12.4978 42.0033
rfemur -44.0449 -9.26495 0.135577
rtibia 50.317
rfoot 4.97772 8.66097
rtoes -8.78857
lfemur 15.9041 -3.63969 -7.45791
ltibia 49.5215
lfoot -32.824 35.6895
ltoes -25.3507
414
root -3.08364 13.7958 -19.7796 -7.12445 28.1672 1.06054
lowerback 17.3318 1.70952 -9.25396
upperback 1.86342 0.675056 1.7914
thorax -7.84552 0.668855 7.07543
lowerneck 0.667005 -9.85197 -9.63358
upperneck 5.41813 -13.5955 9.43264
head 2.80713 -6.77463 3.92152
rclavicle 7.42026e-014 5.96354e-016
rhumerus -32.007 0.356457 -62.1055
rradius 123.217
rwrist -12.076
rhand -28.9446 -30.128
rfingers 7.12502
rthumb -2.29825 -60.0954
lclavicle 7.42026e-014 5.96354e-016
lhumerus -62.5031 -26.4237 106.356
lradius 103.742
lwrist 38.8922
lhand -13.1081 12.4107
lfingers 7.12502
lthumb 12.989 41.9863
rfemur -45.8357 -9.12295 -0.124506
rtibia 52.0879
rfoot 1.96151 11.371
rtoes -28.0923
lfemur 14.8955 -3.0741 -7.41002
ltibia 50.5273
lfoot -31.4814 35.9486
ltoes -25.4506
415
root -3.13243 13.7396 -19.624 -6.1742 27.8245 1.2572
lowerback 17.5041 1.71993 -8.75859
upperback 1.38625 0.730208 1.61422
thorax -8.47042 0.721158 6.58291
lowerneck 0.872855 -9.81558 -9.76446
upperneck 4.99984 -13.5422 9.53043
head 2.65942 -6.75748 3.99443
rclavicle 3.67255e-014 3.32964e-014
rhumerus -31.5635 0.539022 -61.7812
rradius 122.458
rwrist -11.2551
rhand -29.4558 -30.4574
rfingers 7.12502
rthumb -2.79188 -60.4189
lclavicle 3.67255e-014 3.32964e-014
lhumerus -63.1804 -26.211 106.547
lradius 103.773
lwrist 39.6336
lhand -12.4127 12.1056
lfingers 7.12502
lthumb 13.6592 41.6374
rfemur -48.3616 -8.57956 -0.0336655
rtibia 54.0548
rfoot 4.02036 9.75687
rtoes -14.1677
lfemur 13.7432 -2.59966 -7.15578
ltibia 51.8764
lfoot -30.1751 35.9492
ltoes -24.742
416
root -3.14639 13.7109 -19.4842 -6.07569 26.5582 0.0849955
lowerback 17.371 1.76976 -6.83502
upperback 1.20025 1.1885 1.7584
thorax -8.64555 0.88347 5.51867
lowerneck 0.988996 -9.74736 -9.7852
upperneck 4.54088 -13.4298 9.50863
head 2.49292 -6.70872 4.01563
rclavicle -7.07425e-014 3.67752e-015
rhumerus -30.7841 0.806394 -61.4266
rradius 121.53
rwrist -10.2096
rhand -29.7668 -30.7917
rfingers 7.12502
rthumb -3.09226 -60.7491
lclavicle -7.07425e-014 3.67752e-015
lhumerus -63.5522 -25.7913 106.727
lradius 103.826
lwrist 40.9063
lhand -12.2086 12.22
lfingers 7.12502
lthumb 13.8559 41.7384
rfemur -50.4332 -7.95137 1.83656
rtibia 55.804
rfoot 3.78906 10.0746
rtoes -14.8406
lfemur 13.3897 -1.74198 -5.80621
ltibia 53.1679
lfoot -29.278 35.9241
ltoes -23.4093
417
root -3.16987 13.6345 -19.3587 -6.04268 25.4981 -0.119084
lowerback 17.7642 1.85043 -5.84292
upperback 1.23003 1.4566 1.65561
thorax -8.84169 0.976141 4.76542
lowerneck 0.957977 -9.65238 -9.60011
upperneck 4.14926 -13.2688 9.37476
head 2.34457 -6.62971 3.96671
rclavicle 2.99047e-014 -1.50082e-014
rhumerus -29.6139 1.1381 -61.1931
rradius 120.294
rwrist -8.94166
rhand -29.9704 -31.101
rfingers 7.12502
rthumb -3.28888 -61.0554
lclavicle 2.99047e-014 -1.50082e-014
lhumerus -63.622 -25.3068 106.713
lradius 103.878
lwrist 42.5237
lhand -12.4738 13.0669
lfingers 7.12502
lthumb 13.6004 42.6027
rfemur -51.5686 -7.5088 2.56046
rtibia 57.3314
rfoot 2.65249 10.3558
rtoes -13.4262
lfemur 13.4555 -1.14641 -5.45344
ltibia 54.4341
lfoot -28.3442 35.901
ltoes -21.2465
418
root -3.18503 13.581 -19.24 -6.23715 24.3476 -0.434762
lowerback 18.2731 1.96876 -4.85003
upperback 1.32491 1.78273 1.59952
thorax -9.02771 1.09388 4.04512
lowerneck 1.13876 -9.56225 -9.44237
upperneck 3.65717 -13.1356 9.44666
head 2.15096 -6.56795 3.99462
rclavicle -2.95195e-014 4.47266e-015
rhumerus -28.5407 1.45317 -60.9908
rradius 118.931
rwrist -7.43465
rhand -29.7538 -31.4213
rfingers 7.12502
rthumb -3.07965 -61.3788
lclavicle -2.95195e-014 4.47266e-015
lhumerus -63.6267 -24.9105 106.769
lradius 103.941
lwrist 44.0891
lhand -13.3112 14.126
lfingers 7.12502
lthumb 12.7932 43.7141
rfemur -52.1372 -7.09937 3.50948
rtibia 58.4436
rfoot 0.938591 11.1823
rtoes -17.0645
lfemur 13.8658 -0.555832 -5.08537
ltibia 55.3149
lfoot -27.237 35.9991
ltoes -19.1885
419
root -3.19937 13.58 -19.1119 -6.21225 23.347 -0.551282
lowerback 18.6181 2.10577 -4.34199
upperback 1.32301 2.04941 1.56911
thorax -9.2306 1.20386 3.64516
lowerneck 1.25409 -9.49005 -9.36077
upperneck 3.58293 -13.0461 9.53157
head 2.1021 -6.52463 4.02062
rclavicle -2.81032e-014 4.17448e-015
rhumerus -27.3787 1.82535 -60.8234
rradius 117.308
rwrist -6.00821
rhand -29.2993 -31.626
rfingers 7.12502
rthumb -2.64078 -61.5894
lclavicle -2.81032e-014 4.17448e-015
lhumerus -63.6417 -24.5653 107.011
lradius 103.921
lwrist 45.3162
lhand -14.5896 15.3316
lfingers 7.12502
lthumb 11.5606 44.9927
rfemur -52.7206 -6.95039 4.41678
rtibia 59.2675
rfoot 0.3319 11.6718
rtoes -16.4283
lfemur 14.1875 0.137961 -4.85818
ltibia 55.8337
lfoot -25.94 36.0361
ltoes -17.3017
420
root -3.22005 13.5932 -18.9841 -5.95258 22.7356 -0.0679252
lowerback 18.7588 2.2128 -4.59417
upperback 1.44296 2.12057 1.44257
thorax -9.18733 1.2417 3.63014
lowerneck 1.0456 -9.4176 -9.1034
upperneck 3.79477 -12.9368 9.36919
head 2.16099 -6.46196 3.92432
rclavicle 1.6114e-014 1.70955e-014
rhumerus -26.0153 2.11515 -60.7519
rradius 115.4
rwrist -4.58676
rhand -28.8612 -31.5459
rfingers 7.12502
rthumb -2.21769 -61.5141
lclavicle 1.6114e-014 1.70955e-014
lhumerus -63.2469 -24.3362 107.175
lradius 103.778
lwrist 46.0195
lhand -14.9856 15.6793
lfingers 7.12502
lthumb 11.1787 45.3615
rfemur -53.1922 -7.06567 4.60047
rtibia 60.05
rfoot -0.359201 12.3136
rtoes -16.5652
lfemur 14.458 0.635245 -5.28929
ltibia 56.0624
lfoot -24.1717 36.1572
ltoes -15.5162
421
root -3.25284 13.6065 -18.8573 -5.73193 22.4097 0.447336
lowerback 18.8279 2.26445 -5.09376
upperback 1.64274 2.07504 1.34813
thorax -9.01458 1.22994 3.82526
lowerneck 0.717986 -9.31224 -8.86873
upperneck 4.04865 -12.7815 9.26821
head 2.25344 -6.37246 3.84471
rclavicle -2.85629e-014 -4.17448e-015
rhumerus -24.4707 2.319 -60.8307
rradius 113.278
rwrist -3.38806
rhand -28.1638 -31.1889
rfingers 7.12502
rthumb -1.54414 -61.1631
lclavicle -2.85629e-014 -4.17448e-015
lhumerus -62.4231 -24.2951 107.286
lradius 103.459
lwrist 46.4566
lhand -16.2338 17.0171
lfingers 7.12502
lthumb 9.97463 46.7607
rfemur -53.458 -7.25305 4.61213
rtibia 60.8501
rfoot -1.24181 12.7992
rtoes -16.7506
lfemur 14.7007 0.907596 -5.66971
ltibia 56.1575
lfoot -22.5417 36.0639
ltoes -13.876
422
root -3.29036 13.6186 -18.73 -5.64675 22.2872 0.717756
lowerback 19.0708 2.26298 -5.45686
upperback 1.71934 1.98162 1.31286
thorax -9.06493 1.19824 4.01653
lowerneck 0.611205 -9.17398 -8.81279
upperneck 4.2513 -12.6058 9.3739
head 2.31803 -6.27799 3.86667
rclavicle -3.23025e-015 2.127e-014
rhumerus -23.0516 2.52648 -61.0356
rradius 111.135
rwrist -2.79559
rhand -26.9957 -31.4531
rfingers 7.12502
rthumb -0.415948 -61.4324
lclavicle -3.23025e-015 2.127e-014
lhumerus -61.6924 -24.3942 107.419
lradius 103.097
lwrist 46.5586
lhand -16.6984 17.5912
lfingers 7.12502
lthumb 9.52638 47.3558
rfemur -53.5614 -7.42465 4.79006
rtibia 61.6534
rfoot -2.08962 12.9145
rtoes -17.3134
lfemur 14.8494 1.0003 -5.70201
ltibia 56.3052
lfoot -21.0243 35.7931
ltoes -12.4387
423
root -3.33371 13.6406 -18.6044 -5.36455 22.4236 1.02345
lowerback 19.2267 2.17974 -5.89541
upperback 1.65719 1.76088 1.24294
thorax -9.20561 1.11361 4.24883
lowerneck 0.638178 -9.06124 -8.8246
upperneck 4.42624 -12.4714 9.46648
head 2.35972 -6.20893 3.90038
rclavicle 2.73453e-014 6.75868e-015
rhumerus -21.7147 2.8041 -61.4542
rradius 108.95
rwrist -2.6651
rhand -25.5579 -31.7286
rfingers 7.12502
rthumb 0.972774 -61.7061
lclavicle 2.73453e-014 6.75868e-015
lhumerus -60.9595 -24.5601 107.501
lradius 102.576
lwrist 46.2808
lhand -16.5003 17.6982
lfingers 7.12502
lthumb 9.71744 47.454
rfemur -53.787 -7.67209 4.87779
rtibia 62.3967
rfoot -2.47658 12.7033
rtoes -16.5534
lfemur 14.553 0.929351 -5.71182
ltibia 56.5869
lfoot -19.3022 35.4518
ltoes -11.0118
